<svg xmlns="http://www.w3.org/2000/svg" viewBox="0 0 1280 800">
  <defs>
    <linearGradient id="bg2" x1="0%" y1="0%" x2="100%" y2="100%">
      <stop offset="0%" style="stop-color:#0a0a0c"/>
      <stop offset="100%" style="stop-color:#1a1a1f"/>
    </linearGradient>
    <filter id="shadow2">
      <feDropShadow dx="0" dy="10" stdDeviation="20" flood-color="#000" flood-opacity="0.5"/>
    </filter>
  </defs>

  <!-- Background -->
  <rect width="1280" height="800" fill="url(#bg2)"/>

  <!-- Title -->
  <text x="640" y="80" text-anchor="middle" font-family="Segoe UI, Arial, sans-serif" font-size="42" font-weight="bold" fill="#fafafa">Otomatik Şifre Doldurma</text>
  <text x="640" y="120" text-anchor="middle" font-family="Segoe UI, Arial, sans-serif" font-size="22" fill="#a1a1aa">Tek tıkla giriş yapın</text>

  <!-- Browser mockup -->
  <g transform="translate(200, 160)">
    <!-- Browser window -->
    <rect x="0" y="0" width="880" height="550" rx="12" fill="#2a2a30" filter="url(#shadow2)"/>

    <!-- Browser header -->
    <rect x="0" y="0" width="880" height="45" rx="12" fill="#3a3a42"/>
    <rect x="0" y="30" width="880" height="15" fill="#3a3a42"/>

    <!-- Traffic lights -->
    <circle cx="25" cy="22" r="7" fill="#ff5f57"/>
    <circle cx="50" cy="22" r="7" fill="#febc2e"/>
    <circle cx="75" cy="22" r="7" fill="#28c840"/>

    <!-- URL bar -->
    <rect x="120" y="10" width="640" height="26" rx="6" fill="#2a2a30"/>
    <text x="140" y="28" font-family="Segoe UI, Arial, sans-serif" font-size="13" fill="#71717a">https://example.com/login</text>

    <!-- Page content -->
    <rect x="190" y="100" width="500" height="400" rx="12" fill="#1f1f24"/>

    <!-- Login form -->
    <text x="440" y="160" text-anchor="middle" font-family="Segoe UI, Arial, sans-serif" font-size="28" font-weight="bold" fill="#fafafa">Giriş Yap</text>

    <!-- Email field -->
    <rect x="240" y="200" width="400" height="50" rx="8" fill="#2a2a30" stroke="#3a3a42" stroke-width="2"/>
    <text x="260" y="232" font-family="Segoe UI, Arial, sans-serif" font-size="16" fill="#a1a1aa">kullanici@email.com</text>

    <!-- Password field -->
    <rect x="240" y="270" width="400" height="50" rx="8" fill="#2a2a30" stroke="#3a3a42" stroke-width="2"/>
    <text x="260" y="302" font-family="Segoe UI, Arial, sans-serif" font-size="16" fill="#a1a1aa">••••••••••••</text>

    <!-- Login button -->
    <rect x="240" y="350" width="400" height="50" rx="8" fill="#f59e0b"/>
    <text x="440" y="382" text-anchor="middle" font-family="Segoe UI, Arial, sans-serif" font-size="18" font-weight="600" fill="#0a0a0c">Giriş Yap</text>
  </g>

  <!-- ConfPass popup -->
  <g transform="translate(820, 200)">
    <rect x="0" y="0" width="280" height="200" rx="12" fill="#1f1f24" filter="url(#shadow2)" stroke="#f59e0b" stroke-width="2"/>

    <!-- Popup header -->
    <rect x="0" y="0" width="280" height="50" rx="12" fill="#f59e0b"/>
    <rect x="0" y="35" width="280" height="15" fill="#f59e0b"/>
    <text x="20" y="33" font-family="Segoe UI, Arial, sans-serif" font-size="16" font-weight="bold" fill="#0a0a0c">🔐 ConfPass</text>

    <!-- Credential item -->
    <rect x="15" y="65" width="250" height="60" rx="8" fill="#2a2a30"/>
    <text x="30" y="92" font-family="Segoe UI, Arial, sans-serif" font-size="14" font-weight="600" fill="#fafafa">example.com</text>
    <text x="30" y="112" font-family="Segoe UI, Arial, sans-serif" font-size="12" fill="#a1a1aa">kullanici@email.com</text>

    <!-- Auto-fill button -->
    <rect x="15" y="140" width="250" height="45" rx="8" fill="#f59e0b"/>
    <text x="140" y="168" text-anchor="middle" font-family="Segoe UI, Arial, sans-serif" font-size="14" font-weight="600" fill="#0a0a0c">Otomatik Doldur</text>
  </g>

  <!-- Arrow -->
  <path d="M780 300 L810 300" stroke="#f59e0b" stroke-width="4" stroke-linecap="round"/>
  <path d="M800 290 L810 300 L800 310" stroke="#f59e0b" stroke-width="4" stroke-linecap="round" stroke-linejoin="round" fill="none"/>

  <!-- Bottom text -->
  <text x="640" y="760" text-anchor="middle" font-family="Segoe UI, Arial, sans-serif" font-size="18" fill="#71717a">Şifreleriniz otomatik olarak doldurulur</text>
</svg>
